# xmcd
#
# Track frame offsets:
#	150
#	16881
#	32720
#	49354
#	65963
#	84967
#	101354
#	118675
#	141949
#	164945
#	183080
#	201538
#	215913
#	235692
#	249877
#	264234
#	282453
#	302066
#	313905
#	326698
#
# Disc length: 4594 seconds
#
# Revision: 2
# Processed by: cddbd v1.5.2PL0 Copyright (c) Steve Scherf et al.
# Submitted via: EasyCDDAExtractor 16.0.6.1
#
DISCID=3011f014
DTITLE=Συλλογικός δίσκος - Επιτυχίες 2011 1
DYEAR=2010
DGENRE=Νεώτερη
TTITLE0=Στρατής Μύρωνας - Πάνω απ' όλα [Μ. Στρατής-ίδιος κ Βίκυ Γεροθεοδώρου]
TTITLE1=Rec-INNON - Σε όνειρα χαμένα [Teo Tzimas-Rec/Ελένη Μπαρμπάκου]
TTITLE2=Παπακωνσταντίνου Βασίλης - Το παιχνίδι παίζεται ακόμα [Β.Παπ)ντίνου-Οδ
TTITLE2=Ιωάννου]
TTITLE3=Τσανακλίδου Τάνια - Εγώ για δύο [Γ. Χριστοδουλόπουλος-Ελεάνα Βραχάλη]
TTITLE4=Στόκας Μπάμπης - Ερωτευμένος Έρασμος [Μπ. Στόκας-Αγαθή Δημητρούκα]
TTITLE5=Locomondo - Goal [Μάρκος Κούμαρης]
TTITLE6=Μποφίλιου Νατάσσα - Το μέτρημα [Θ. Καραμουρατίδης-Γερ. Ευαγγελάτος]
TTITLE7=Μητσοτάκη Ιωάννα κ Γωγώ-Καλταμπάνου Στ. - Αν (Θυγατρικό)[Δ. Μητσοτάκης
TTITLE7=]
TTITLE8=Φάμελλος Μανώλης - Αγάπη σ' εμένα [Μ. Φάμελλος]
TTITLE9=Δημητριάδης Γιώργος - Τι να σκεφτώ [Γ. Δημητριάδης-Σ. Πανταζόπουλος]
TTITLE10=Αλχημιστές-Καρράς Βασίλης - Λόγια φιλικά [Β. Γαβριηλίδης-Αλχημιστές]
TTITLE11=May Day - Τρελλά καλοκαίρια [Μπάμπης Συντάκης]
TTITLE12=Θηβαίος Χρήστος - Αγάπη [Β. Δημητρίου-Κατίνα Παΐζη]
TTITLE13=Δάρρα Φωτεινή - Αγόρι μου [Τ. Βοσκόπουλος-Μ. Θειόπουλος]
TTITLE14=Μακεδόνας Κώστας - Γλυκά μου μάτια αγαπημένα [Ν. Γούναρης-Σπ. Χαρώνης
TTITLE14=]
TTITLE15=Δρογώσης Στάθης - Νύχτα [Σ. Δρογώσης]
TTITLE16=Λειβαδάς Κώστας - Ο τελευταίος να κλείσει την πόρτα [Κ. Λειβαδάς]
TTITLE17=Αρλέτα - Αχ ωραία μου πατρίδα [Αρλέτα]
TTITLE18=Άκρως Απόρρητον - Μέσα μου κρύβεσαι εσύ [Δ. Παλούδης-Φ. Ανδρεόπουλος]
TTITLE19=Υπόγεια Ρεύματα - Federico Garcia Lorca [Θ. Μικρούτσικος-Ν. Καββαδίας
TTITLE19=]
EXTD=
EXTT0=
EXTT1=
EXTT2=
EXTT3=
EXTT4=
EXTT5=
EXTT6=
EXTT7=
EXTT8=
EXTT9=
EXTT10=
EXTT11=
EXTT12=
EXTT13=
EXTT14=
EXTT15=
EXTT16=
EXTT17=
EXTT18=
EXTT19=
PLAYORDER=
